<svg width="32" height="32" viewBox="0 0 32 32" fill="none" xmlns="http://www.w3.org/2000/svg">
<path d="M11.4885 26.185C10.8812 25.4772 10.4073 24.6419 10.1159 23.7121C9.08959 20.4366 10.4985 16.9434 13.5621 15.308L13.5627 15.3077C14.6338 14.7364 15.3897 13.7356 15.6953 12.4801L15.6953 12.4797C15.7521 12.246 15.7845 11.9903 15.7871 11.7082C15.7876 11.6581 15.7871 11.5963 15.7866 11.5252C15.7842 11.179 15.7803 10.6121 15.8641 10.096C16.0804 8.75305 16.6248 7.5595 17.4874 6.55476C15.5898 5.59529 13.2222 5.88603 11.6395 7.38315C10.7758 8.19932 10.2478 9.20546 10.0555 10.4016C10.0004 10.7404 10.0018 11.0886 10.0031 11.4373C10.0035 11.5335 10.0039 11.63 10.0031 11.7261C9.9992 12.1456 9.95059 12.5474 9.85723 12.9315C9.43238 14.678 8.35275 16.1469 6.76941 16.9914C4.51595 18.1944 3.49202 20.7397 4.24456 23.1414C5.06179 25.7495 7.84573 27.3269 10.5369 26.5526C10.8745 26.4555 11.1917 26.333 11.4885 26.185Z" fill="#FF9D2B"/>
<path d="M11.9329 23.1414C12.7501 25.7495 15.534 27.3269 18.2252 26.5526C19.6162 26.1527 20.6601 25.3208 21.3568 24.0569C21.7664 23.3137 21.9777 22.5374 21.9904 21.7278C21.9923 21.6128 21.9911 21.4938 21.9899 21.3734C21.987 21.0924 21.984 20.8035 22.0204 20.5404C22.2772 18.6986 23.119 17.2463 24.5456 16.1835C24.811 15.9857 25.1498 15.7721 25.5621 15.5428C25.9613 15.321 26.3382 15.0055 26.6929 14.5962C27.695 13.4397 28.1209 12.102 27.9706 10.5831C27.8454 9.32491 27.2185 8.12503 26.2248 7.26069C24.2333 5.52773 21.2197 5.59352 19.3278 7.38315C18.4641 8.19932 17.9361 9.20547 17.7438 10.4016C17.6887 10.7404 17.6901 11.0886 17.6914 11.4373C17.6918 11.5335 17.6922 11.63 17.6914 11.7261C17.6875 12.1456 17.6389 12.5474 17.5455 12.9315C17.2335 14.2141 16.5684 15.347 15.61 16.1928C15.5896 16.2108 15.5691 16.2287 15.5484 16.2464C15.218 16.53 14.8538 16.78 14.4581 16.9911C14.1037 17.1803 13.7796 17.4027 13.4881 17.6526C13.4692 17.6688 13.4504 17.6852 13.4317 17.7016C11.9112 19.0428 11.3063 21.1419 11.9329 23.1414Z" fill="#FF9D2B"/>
</svg>
