<svg width="24" height="21" viewBox="0 0 24 21" fill="none" xmlns="http://www.w3.org/2000/svg">
<path d="M7.48851 20.185C6.88122 19.4772 6.40729 18.6419 6.11593 17.7121C5.08959 14.4366 6.49851 10.9434 9.5621 9.30798L9.56271 9.30766C10.6338 8.73637 11.3897 7.73559 11.6953 6.48007L11.6953 6.47971C11.7521 6.24605 11.7845 5.99034 11.7871 5.70822C11.7876 5.6581 11.7871 5.59627 11.7866 5.5252C11.7842 5.17899 11.7803 4.61205 11.8641 4.09595C12.0804 2.75305 12.6248 1.5595 13.4874 0.554757C11.5898 -0.404712 9.22216 -0.113969 7.63953 1.38315C6.77584 2.19932 6.24784 3.20546 6.05554 4.4016C6.00044 4.74038 6.00179 5.08861 6.00313 5.43728C6.0035 5.53351 6.00387 5.62997 6.00306 5.72609C5.9992 6.14557 5.95059 6.54736 5.85723 6.93146C5.43238 8.67796 4.35275 10.1469 2.76941 10.9914C0.51595 12.1944 -0.507985 14.7397 0.244564 17.1414C1.06179 19.7495 3.84573 21.3269 6.53685 20.5526C6.87453 20.4555 7.19175 20.333 7.48851 20.185Z" fill="#FF9D2B"/>
<path d="M7.93287 17.1414C8.7501 19.7495 11.534 21.3269 14.2252 20.5526C15.6162 20.1527 16.6601 19.3208 17.3568 18.0569C17.7664 17.3137 17.9777 16.5374 17.9904 15.7278C17.9923 15.6128 17.9911 15.4938 17.9899 15.3734C17.987 15.0924 17.984 14.8035 18.0204 14.5404C18.2772 12.6986 19.119 11.2463 20.5456 10.1835C20.811 9.98569 21.1498 9.77214 21.5621 9.54283C21.9613 9.32104 22.3382 9.00551 22.6929 8.59624C23.695 7.43968 24.1209 6.10197 23.9706 4.5831C23.8454 3.32491 23.2185 2.12503 22.2248 1.26069C20.2333 -0.472268 17.2197 -0.406484 15.3278 1.38315C14.4641 2.19932 13.9361 3.20547 13.7438 4.4016C13.6887 4.74039 13.6901 5.08862 13.6914 5.43728C13.6918 5.53352 13.6922 5.62998 13.6914 5.72609C13.6875 6.14557 13.6389 6.54736 13.5455 6.93147C13.2335 8.21405 12.5684 9.34697 11.61 10.1928C11.5896 10.2108 11.5691 10.2287 11.5484 10.2464C11.218 10.53 10.8538 10.78 10.4581 10.9911C10.1037 11.1803 9.77961 11.4027 9.48811 11.6526C9.46917 11.6688 9.45037 11.6852 9.4317 11.7016C7.91116 13.0428 7.30633 15.1419 7.93287 17.1414Z" fill="#FF9D2B"/>
</svg>
